<?xml version="1.0" encoding="utf-8"?>
<!-- Generator: Adobe Illustrator 21.0.2, SVG Export Plug-In . SVG Version: 6.00 Build 0)  -->
<svg version="1.1" id="Layer_1" xmlns="http://www.w3.org/2000/svg" xmlns:xlink="http://www.w3.org/1999/xlink" x="0px" y="0px"
	 viewBox="0 0 1065 993" style="enable-background:new 0 0 1065 993;" xml:space="preserve">
<style type="text/css">
	.st0{fill:#FFFFFF;}
	.st1{filter:url(#Adobe_OpacityMaskFilter);}
	.st2{mask:url(#mask-2);fill:url(#Fill-1_1_);}
	.st3{filter:url(#Adobe_OpacityMaskFilter_1_);}
	.st4{mask:url(#mask-5);fill:url(#Fill-4_1_);}
	.st5{filter:url(#Adobe_OpacityMaskFilter_2_);}
	.st6{mask:url(#mask-7);fill:url(#Fill-7_1_);}
	.st7{filter:url(#Adobe_OpacityMaskFilter_3_);}
	.st8{mask:url(#mask-9);fill:url(#Fill-10_1_);}
	.st9{filter:url(#Adobe_OpacityMaskFilter_4_);}
	.st10{mask:url(#mask-11);fill:url(#Fill-13_1_);}
	.st11{filter:url(#Adobe_OpacityMaskFilter_5_);}
	.st12{mask:url(#mask-13);fill:url(#Fill-16_1_);}
	.st13{fill:url(#Fill-19_1_);}
	.st14{filter:url(#Adobe_OpacityMaskFilter_6_);}
	.st15{mask:url(#mask-19);fill:url(#Fill-22_1_);}
	.st16{filter:url(#Adobe_OpacityMaskFilter_7_);}
	.st17{mask:url(#mask-22);fill:url(#Fill-25_1_);}
</style>
<g>
	<path id="path-16" class="st0" d="M399.7,254.6C304.3,289.7,228.3,359.8,185.6,452c-88.1,190.4-4.9,417.1,185.5,505.2
		c51.6,23.9,105.8,35.2,159.2,35.2c143.7,0,281.6-81.9,345.8-220.8c88.1-190.4,4.9-417.1-185.5-505.2
		c-50.8-23.5-105.1-35.4-159.5-35.4C486.8,231.1,442.5,238.9,399.7,254.6 M223.9,469.8c37.9-82,105.5-144.4,190.3-175.5
		c38-14,77.5-20.9,116.8-20.9c48.4,0,96.6,10.5,141.8,31.5c169.2,78.3,243.2,279.8,164.9,449.1c-57.1,123.5-179.6,196.3-307.4,196.3
		c-47.5,0-95.7-10.1-141.5-31.3C219.6,840.6,145.6,639.1,223.9,469.8z"/>
</g>
<title>Page 1</title>
<desc>Created with Sketch.</desc>
<g id="Page-1">
	<g>
		<g id="Group-3" transform="translate(0.000000, 295.000000)">
			<g id="Clip-2">
			</g>
			<defs>
				<filter id="Adobe_OpacityMaskFilter" filterUnits="userSpaceOnUse" x="0.2" y="0.5" width="142.6" height="100.6">
					<feColorMatrix  type="matrix" values="1 0 0 0 0  0 1 0 0 0  0 0 1 0 0  0 0 0 1 0"/>
				</filter>
			</defs>
			<mask maskUnits="userSpaceOnUse" x="0.2" y="0.5" width="142.6" height="100.6" id="mask-2">
				<g class="st1">
					<path id="path-1" class="st0" d="M3,11c-1.8,3.1-2.7,6.4-2.8,9.7v1.6c0.3,7,4,13.7,10.5,17.5l100.7,58.4
						c3.3,1.9,6.9,2.8,10.5,2.8c7.3,0,14.3-3.8,18.2-10.5c5.8-10.1,2.3-23-7.7-28.8L31.7,3.3c-3.3-1.9-6.9-2.8-10.5-2.8
						C13.9,0.5,6.9,4.3,3,11"/>
				</g>
			</mask>
			
				<linearGradient id="Fill-1_1_" gradientUnits="userSpaceOnUse" x1="521.5462" y1="213.7491" x2="522.2588" y2="215.3489" gradientTransform="matrix(142.6255 0 0 -100.5863 -74353.1953 21612.5996)">
				<stop  offset="0" style="stop-color:#97C1FF"/>
				<stop  offset="1" style="stop-color:#0F6FFF"/>
			</linearGradient>
			<path id="Fill-1" class="st2" d="M3,11c-1.8,3.1-2.7,6.4-2.8,9.7v1.6c0.3,7,4,13.7,10.5,17.5l100.7,58.4
				c3.3,1.9,6.9,2.8,10.5,2.8c7.3,0,14.3-3.8,18.2-10.5c5.8-10.1,2.3-23-7.7-28.8L31.7,3.3c-3.3-1.9-6.9-2.8-10.5-2.8
				C13.9,0.5,6.9,4.3,3,11"/>
		</g>
		<g id="Group-6" transform="translate(216.000000, 79.000000)">
			<g id="Clip-5">
			</g>
			<defs>
				<filter id="Adobe_OpacityMaskFilter_1_" filterUnits="userSpaceOnUse" x="0.3" y="0" width="100.4" height="142.6">
					<feColorMatrix  type="matrix" values="1 0 0 0 0  0 1 0 0 0  0 0 1 0 0  0 0 0 1 0"/>
				</filter>
			</defs>
			<mask maskUnits="userSpaceOnUse" x="0.3" y="0" width="100.4" height="142.6" id="mask-5">
				<g class="st3">
					<path id="path-4" class="st0" d="M10.8,2.8C0.7,8.7-2.7,21.5,3.1,31.5l58.3,100.7c3.9,6.7,11,10.5,18.3,10.5
						c3.6,0,7.2-0.9,10.5-2.8c10.1-5.8,13.5-18.6,7.7-28.7L39.6,10.5C35.7,3.8,28.6,0,21.3,0C17.8,0,14.1,0.9,10.8,2.8"/>
				</g>
			</mask>
			
				<linearGradient id="Fill-4_1_" gradientUnits="userSpaceOnUse" x1="304.0003" y1="428.316" x2="304.7129" y2="429.9158" gradientTransform="matrix(100.4423 0 0 -142.6337 -30511.3828 61250.9922)">
				<stop  offset="0" style="stop-color:#97C1FF"/>
				<stop  offset="1" style="stop-color:#0F6FFF"/>
			</linearGradient>
			<path id="Fill-4" class="st4" d="M10.8,2.8C0.7,8.7-2.7,21.5,3.1,31.5l58.3,100.7c3.9,6.7,11,10.5,18.3,10.5
				c3.6,0,7.2-0.9,10.5-2.8c10.1-5.8,13.5-18.6,7.7-28.7L39.6,10.5C35.7,3.8,28.6,0,21.3,0C17.8,0,14.1,0.9,10.8,2.8"/>
		</g>
		<g id="Group-9" transform="translate(511.000000, 0.000000)">
			<g id="Clip-8">
			</g>
			<defs>
				<filter id="Adobe_OpacityMaskFilter_2_" filterUnits="userSpaceOnUse" x="0.5" y="0.2" width="41.8" height="158.8">
					<feColorMatrix  type="matrix" values="1 0 0 0 0  0 1 0 0 0  0 0 1 0 0  0 0 0 1 0"/>
				</filter>
			</defs>
			<mask maskUnits="userSpaceOnUse" x="0.5" y="0.2" width="41.8" height="158.8" id="mask-7">
				<g class="st5">
					<path id="path-6" class="st0" d="M0.5,21.2v116.7c0,11.6,9.4,21.1,20.9,21.1c11.6,0,20.9-9.4,20.9-21.1V21.2
						c0-11.6-9.3-21.1-20.9-21.1C9.8,0.2,0.5,9.6,0.5,21.2"/>
				</g>
			</mask>
			
				<linearGradient id="Fill-7_1_" gradientUnits="userSpaceOnUse" x1="1.6716" y1="506.9663" x2="2.3841" y2="508.5661" gradientTransform="matrix(41.8138 0 0 -158.8337 -59.9193 80700.1797)">
				<stop  offset="0" style="stop-color:#97C1FF"/>
				<stop  offset="1" style="stop-color:#0F6FFF"/>
			</linearGradient>
			<path id="Fill-7" class="st6" d="M0.5,21.2v116.7c0,11.6,9.4,21.1,20.9,21.1c11.6,0,20.9-9.4,20.9-21.1V21.2
				c0-11.6-9.3-21.1-20.9-21.1C9.8,0.2,0.5,9.6,0.5,21.2"/>
		</g>
		<g id="Group-12" transform="translate(747.000000, 79.000000)">
			<g id="Clip-11">
			</g>
			<defs>
				<filter id="Adobe_OpacityMaskFilter_3_" filterUnits="userSpaceOnUse" x="0.5" y="0" width="101" height="142.6">
					<feColorMatrix  type="matrix" values="1 0 0 0 0  0 1 0 0 0  0 0 1 0 0  0 0 0 1 0"/>
				</filter>
			</defs>
			<mask maskUnits="userSpaceOnUse" x="0.5" y="0" width="101" height="142.6" id="mask-9">
				<g class="st7">
					<path id="path-8" class="st0" d="M61.9,10.5L3.3,111.2c-5.9,10-2.4,22.9,7.7,28.7c3.3,1.9,7,2.8,10.6,2.8
						c7.3,0,14.4-3.8,18.4-10.5L98.6,31.5c5.8-10,2.4-22.9-7.8-28.7C87.5,1,83.9,0,80.3,0C73,0,65.9,3.8,61.9,10.5"/>
				</g>
			</mask>
			
				<linearGradient id="Fill-10_1_" gradientUnits="userSpaceOnUse" x1="-226.9716" y1="428.3163" x2="-226.259" y2="429.9161" gradientTransform="matrix(100.9839 0 0 -142.6199 22943.9023 61245.1211)">
				<stop  offset="0" style="stop-color:#97C1FF"/>
				<stop  offset="1" style="stop-color:#0F6FFF"/>
			</linearGradient>
			<path id="Fill-10" class="st8" d="M61.9,10.5L3.3,111.2c-5.9,10-2.4,22.9,7.7,28.7c3.3,1.9,7,2.8,10.6,2.8
				c7.3,0,14.4-3.8,18.4-10.5L98.6,31.5c5.8-10,2.4-22.9-7.8-28.7C87.5,1,83.9,0,80.3,0C73,0,65.9,3.8,61.9,10.5"/>
		</g>
		<g id="Group-15" transform="translate(921.000000, 295.000000)">
			<g id="Clip-14">
			</g>
			<defs>
				<filter id="Adobe_OpacityMaskFilter_4_" filterUnits="userSpaceOnUse" x="0.7" y="0.5" width="142.9" height="100.6">
					<feColorMatrix  type="matrix" values="1 0 0 0 0  0 1 0 0 0  0 0 1 0 0  0 0 0 1 0"/>
				</filter>
			</defs>
			<mask maskUnits="userSpaceOnUse" x="0.7" y="0.5" width="142.9" height="100.6" id="mask-11">
				<g class="st9">
					<path id="path-10" class="st0" d="M112,3.3L11.2,61.7C1.1,67.5-2.3,80.4,3.5,90.5c3.9,6.8,11,10.5,18.2,10.5
						c3.6,0,7.2-0.9,10.5-2.8L133,39.8c10.1-5.8,13.5-18.7,7.7-28.8c-3.9-6.7-11-10.5-18.2-10.5C118.9,0.5,115.3,1.4,112,3.3"/>
				</g>
			</mask>
			
				<linearGradient id="Fill-13_1_" gradientUnits="userSpaceOnUse" x1="-399.4473" y1="213.7491" x2="-398.7348" y2="215.3489" gradientTransform="matrix(142.8739 0 0 -100.5863 57103.7422 21612.5996)">
				<stop  offset="0" style="stop-color:#97C1FF"/>
				<stop  offset="1" style="stop-color:#0F6FFF"/>
			</linearGradient>
			<path id="Fill-13" class="st10" d="M112,3.3L11.2,61.7C1.1,67.5-2.3,80.4,3.5,90.5c3.9,6.8,11,10.5,18.2,10.5
				c3.6,0,7.2-0.9,10.5-2.8L133,39.8c10.1-5.8,13.5-18.7,7.7-28.8c-3.9-6.7-11-10.5-18.2-10.5C118.9,0.5,115.3,1.4,112,3.3"/>
		</g>
		<g id="Group-18" transform="translate(277.000000, 268.000000)">
			<g id="Clip-17">
			</g>
			<defs>
				<filter id="Adobe_OpacityMaskFilter_5_" filterUnits="userSpaceOnUse" x="0.3" y="0.1" width="509.3" height="688.4">
					<feColorMatrix  type="matrix" values="1 0 0 0 0  0 1 0 0 0  0 0 1 0 0  0 0 0 1 0"/>
				</filter>
			</defs>
			<mask maskUnits="userSpaceOnUse" x="0.3" y="0.1" width="509.3" height="688.4" id="mask-13">
				<g class="st11">
					<path id="path-12" class="st0" d="M264.9,46.1C200.3,90.4,137.3,162.1,87.7,248C-19.1,432.8-29.4,620,64.3,674.1
						c16.9,9.7,35.9,14.4,56.3,14.4c92.5,0,213.9-96.2,301.4-247.7c49.6-85.8,80.3-176.1,86.4-254.3c6.6-83.6-15.8-144.6-63-171.8
						c-16.9-9.7-36-14.6-56.7-14.6C351.6,0.1,309.3,15.6,264.9,46.1 M85.5,637.5c-31.8-18.4-47.2-66.5-42-132
						c5.7-71.9,34.4-155.9,80.9-236.4c46.5-80.5,105-147.3,164.5-188.2c36.9-25.3,71.5-38.4,99.9-38.4c13.3,0,25.3,2.9,35.5,8.8
						c31.9,18.4,47.2,66.5,42,132c-5.6,72-34.4,155.9-80.9,236.4S280.5,567,220.9,607.9c-36.9,25.3-71.5,38.4-99.9,38.4
						C107.6,646.2,95.7,643.4,85.5,637.5"/>
				</g>
			</mask>
			
				<linearGradient id="Fill-16_1_" gradientUnits="userSpaceOnUse" x1="247.2514" y1="236.829" x2="247.779" y2="237.7535" gradientTransform="matrix(509.2883 0 0 -688.3636 -125778.2266 163631.2656)">
				<stop  offset="0" style="stop-color:#97C1FF;stop-opacity:0.82"/>
				<stop  offset="0.7151" style="stop-color:#97C1FF;stop-opacity:0"/>
				<stop  offset="0.7852" style="stop-color:#97C1FF;stop-opacity:0"/>
				<stop  offset="1" style="stop-color:#0F6FFF"/>
			</linearGradient>
			<path id="Fill-16" class="st12" d="M264.9,46.1C200.3,90.4,137.3,162.1,87.7,248C-19.1,432.8-29.4,620,64.3,674.1
				c16.9,9.7,35.9,14.4,56.3,14.4c92.5,0,213.9-96.2,301.4-247.7c49.6-85.8,80.3-176.1,86.4-254.3c6.6-83.6-15.8-144.6-63-171.8
				c-16.9-9.7-36-14.6-56.7-14.6C351.6,0.1,309.3,15.6,264.9,46.1 M85.5,637.5c-31.8-18.4-47.2-66.5-42-132
				c5.7-71.9,34.4-155.9,80.9-236.4c46.5-80.5,105-147.3,164.5-188.2c36.9-25.3,71.5-38.4,99.9-38.4c13.3,0,25.3,2.9,35.5,8.8
				c31.9,18.4,47.2,66.5,42,132c-5.6,72-34.4,155.9-80.9,236.4S280.5,567,220.9,607.9c-36.9,25.3-71.5,38.4-99.9,38.4
				C107.6,646.2,95.7,643.4,85.5,637.5"/>
		</g>
		<g id="Group-21" transform="translate(150.000000, 231.000000)">
			
				<linearGradient id="Fill-19_1_" gradientUnits="userSpaceOnUse" x1="374.5923" y1="273.7609" x2="375.1199" y2="274.6854" gradientTransform="matrix(760.7468 0 0 -761.305 -284754.5625 209086.6875)">
				<stop  offset="0" style="stop-color:#97C1FF;stop-opacity:0.82"/>
				<stop  offset="0.4065" style="stop-color:#97C1FF;stop-opacity:0"/>
				<stop  offset="0.5538" style="stop-color:#97C1FF;stop-opacity:0"/>
				<stop  offset="1" style="stop-color:#0F6FFF"/>
			</linearGradient>
			<path id="Fill-19" class="st13" d="M249.7,23.6C154.3,58.7,78.3,128.8,35.6,221c-88.1,190.4-4.9,417.1,185.5,505.2
				c51.6,23.9,105.8,35.2,159.2,35.2c143.7,0,281.6-81.9,345.8-220.8c88.1-190.4,4.9-417.1-185.5-505.2
				C489.7,11.9,435.5,0.1,381.1,0.1C336.8,0.1,292.5,7.9,249.7,23.6 M238.9,687.9C69.6,609.6-4.4,408.1,73.9,238.8
				c37.9-82,105.5-144.4,190.3-175.5c38-14,77.5-20.9,116.8-20.9c48.4,0,96.6,10.5,141.8,31.5c169.2,78.3,243.2,279.8,164.9,449.1
				c-57.1,123.5-179.6,196.3-307.4,196.3C332.9,719.2,284.7,709.1,238.9,687.9"/>
			<g id="Clip-20">
			</g>
		</g>
		<g id="Group-24" transform="translate(176.000000, 314.000000)">
			<g id="Clip-23">
			</g>
			<defs>
				<filter id="Adobe_OpacityMaskFilter_6_" filterUnits="userSpaceOnUse" x="0.7" y="0.9" width="710.8" height="593.9">
					<feColorMatrix  type="matrix" values="1 0 0 0 0  0 1 0 0 0  0 0 1 0 0  0 0 0 1 0"/>
				</filter>
			</defs>
			<mask maskUnits="userSpaceOnUse" x="0.7" y="0.9" width="710.8" height="593.9" id="mask-19">
				<g class="st14">
					<path id="path-18" class="st0" d="M219.7,1.8c-88.9,6-157.6,43.5-193.4,105.6c-35.9,62.1-34,140.4,5.3,220.4
						c37.9,77.2,106.5,147.3,193.4,197.4c78.4,45.3,163.6,69.6,242.5,69.6c8.4,0,16.8-0.3,25-0.8c88.9-6,157.6-43.5,193.4-105.6
						c35.9-62.1,34-140.4-5.3-220.4c-37.9-77.2-106.5-147.3-193.3-197.4C408.9,25.2,323.7,0.9,244.7,0.9
						C236.3,0.9,228,1.2,219.7,1.8 M246,488.6c-79.6-46-142.3-109.7-176.5-179.5c-32.9-67-35.2-131.1-6.6-180.6
						s85.3-79.6,159.7-84.6c77.5-5.2,164,17.2,243.6,63.2c79.6,46,142.3,109.7,176.5,179.5c32.9,66.9,35.2,131.1,6.6,180.6
						c-32.7,56.7-100.3,85.6-181.1,85.6C399.2,552.8,320.5,531.6,246,488.6"/>
				</g>
			</mask>
			
				<linearGradient id="Fill-22_1_" gradientUnits="userSpaceOnUse" x1="348.5437" y1="190.942" x2="349.0713" y2="191.8665" gradientTransform="matrix(710.7974 0 0 -593.8579 -247542.6094 113916.7969)">
				<stop  offset="0" style="stop-color:#97C1FF"/>
				<stop  offset="0.7926" style="stop-color:#97C1FF;stop-opacity:0.21"/>
				<stop  offset="0.8683" style="stop-color:#97C1FF;stop-opacity:0"/>
				<stop  offset="1" style="stop-color:#0F6FFF"/>
			</linearGradient>
			<path id="Fill-22" class="st15" d="M219.7,1.8c-88.9,6-157.6,43.5-193.4,105.6c-35.9,62.1-34,140.4,5.3,220.4
				c37.9,77.2,106.5,147.3,193.4,197.4c78.4,45.3,163.6,69.6,242.5,69.6c8.4,0,16.8-0.3,25-0.8c88.9-6,157.6-43.5,193.4-105.6
				c35.9-62.1,34-140.4-5.3-220.4c-37.9-77.2-106.5-147.3-193.3-197.4C408.9,25.2,323.7,0.9,244.7,0.9C236.3,0.9,228,1.2,219.7,1.8
				 M246,488.6c-79.6-46-142.3-109.7-176.5-179.5c-32.9-67-35.2-131.1-6.6-180.6s85.3-79.6,159.7-84.6c77.5-5.2,164,17.2,243.6,63.2
				c79.6,46,142.3,109.7,176.5,179.5c32.9,66.9,35.2,131.1,6.6,180.6c-32.7,56.7-100.3,85.6-181.1,85.6
				C399.2,552.8,320.5,531.6,246,488.6"/>
		</g>
		<g id="Group-27" transform="translate(184.000000, 344.000000)">
			<g id="Clip-26">
			</g>
			<defs>
				<filter id="Adobe_OpacityMaskFilter_7_" filterUnits="userSpaceOnUse" x="0.5" y="0.1" width="696.1" height="537.4">
					<feColorMatrix  type="matrix" values="1 0 0 0 0  0 1 0 0 0  0 0 1 0 0  0 0 0 1 0"/>
				</filter>
			</defs>
			<mask maskUnits="userSpaceOnUse" x="0.5" y="0.1" width="696.1" height="537.4" id="mask-22">
				<g class="st16">
					<path id="path-21" class="st0" d="M508.7,0.1c-79.3,0-174.8,27.1-268.3,81.1C154.1,131.1,83.3,196.5,41,265.5
						c-44.7,72.9-52.7,141.9-22.6,194.1c30,52,92.3,78,170,78c79.4,0,174.8-27.1,268.3-81.1c86.3-49.9,157.1-115.3,199.4-184.2
						c44.7-72.9,52.7-141.8,22.5-194.1C648.7,26.1,586.4,0.1,508.7,0.1L508.7,0.1z M55.1,438.4c-22-38.2-14.2-91.8,22-150.8
						c38.6-63.1,104.1-123.3,184.4-169.7C347.2,68.4,437.4,43,509.7,43c61.8,0,110.6,18.5,132.4,56.2c22,38.2,14.2,91.7-22,150.8
						C581.5,313.2,516,373.4,435.7,419.8c-85.8,49.5-175.9,74.9-248.2,74.9C125.6,494.7,76.9,476.2,55.1,438.4z"/>
				</g>
			</mask>
			
				<linearGradient id="Fill-25_1_" gradientUnits="userSpaceOnUse" x1="340.4731" y1="160.7975" x2="341.1856" y2="162.3973" gradientTransform="matrix(696.1365 0 0 -537.4455 -236857.0156 87017.875)">
				<stop  offset="0" style="stop-color:#97C1FF"/>
				<stop  offset="1" style="stop-color:#0F6FFF"/>
			</linearGradient>
			<path id="Fill-25" class="st17" d="M508.7,0.1c-79.3,0-174.8,27.1-268.3,81.1C154.1,131.1,83.3,196.5,41,265.5
				c-44.7,72.9-52.7,141.9-22.6,194.1c30,52,92.3,78,170,78c79.4,0,174.8-27.1,268.3-81.1c86.3-49.9,157.1-115.3,199.4-184.2
				c44.7-72.9,52.7-141.8,22.5-194.1C648.7,26.1,586.4,0.1,508.7,0.1L508.7,0.1z M55.1,438.4c-22-38.2-14.2-91.8,22-150.8
				c38.6-63.1,104.1-123.3,184.4-169.7C347.2,68.4,437.4,43,509.7,43c61.8,0,110.6,18.5,132.4,56.2c22,38.2,14.2,91.7-22,150.8
				C581.5,313.2,516,373.4,435.7,419.8c-85.8,49.5-175.9,74.9-248.2,74.9C125.6,494.7,76.9,476.2,55.1,438.4z"/>
		</g>
	</g>
</g>
</svg>
