<?xml version="1.0" encoding="UTF-8"?>
<svg width="1065px" height="993px" viewBox="0 0 1065 993" version="1.1" xmlns="http://www.w3.org/2000/svg" xmlns:xlink="http://www.w3.org/1999/xlink">
    <!-- Generator: Sketch 50.2 (55047) - http://www.bohemiancoding.com/sketch -->
    <title>Page 1</title>
    <desc>Created with Sketch.</desc>
    <defs>
        <path d="M2.98874308,11.0131987 C1.22203953,14.1205387 0.311083004,17.4082155 0.18686166,20.7375084 L0.18686166,22.3466667 C0.462909091,29.3520539 4.18954941,36.0938721 10.676664,39.8393266 L111.33736,98.2406734 C114.636126,100.155017 118.252348,101.070572 121.799557,101.070572 C129.059605,101.070572 136.112617,97.2835017 140.004885,90.5278114 C145.788079,80.4289562 142.351289,67.5418182 132.316964,61.7155556 L31.6562688,3.31420875 C28.3436996,1.39986532 24.7688854,0.484309764 21.1940711,0.484309764 C13.9340237,0.484309764 6.89481423,4.27138047 2.98874308,11.0131987" id="path-1"></path>
        <linearGradient x1="22.723004%" y1="111.236403%" x2="93.9807238%" y2="-48.7411972%" id="linearGradient-3">
            <stop stop-color="#20D5D2" offset="0%"></stop>
            <stop stop-color="#009E9A" offset="100%"></stop>
        </linearGradient>
        <path d="M10.8050095,2.84599209 C0.735784091,8.65679051 -2.71296023,21.4791937 3.10419886,31.5135178 L61.4142936,132.174213 C65.3201004,138.909771 72.3976439,142.664016 79.6829432,142.664016 C83.2424905,142.664016 86.8712898,141.766862 90.1815303,139.848332 C100.250756,134.065138 103.71335,121.201328 97.8961913,111.180806 L39.5722462,10.533913 C35.6941402,3.79835573 28.5888958,0.0303083004 21.3312973,0.0303083004 C17.7578996,0.0303083004 14.11525,0.941264822 10.8050095,2.84599209" id="path-4"></path>
        <path d="M0.473214286,21.2277124 L0.473214286,137.91085 C0.473214286,149.550065 9.83696429,158.986144 21.3732143,158.986144 C32.9369643,158.986144 42.2869643,149.550065 42.2869643,137.91085 L42.2869643,21.2277124 C42.2869643,9.60235294 32.9369643,0.152418301 21.3732143,0.152418301 C9.83696429,0.152418301 0.473214286,9.60235294 0.473214286,21.2277124" id="path-6"></path>
        <path d="M61.9371462,10.533913 L3.31872692,111.180806 C-2.54450769,121.201328 0.937223077,134.065138 11.0481692,139.848332 C14.3906308,141.766862 18.0255577,142.664016 21.6187038,142.664016 C28.9303385,142.664016 36.0609231,138.909771 39.9743885,132.174213 L98.6206615,31.5135178 C104.456042,21.4791937 100.988238,8.65679051 90.8633654,2.84599209 C87.5209038,0.955067194 83.8999038,0.0441106719 80.3067577,0.0441106719 C72.9811962,0.0441106719 65.8645385,3.79835573 61.9371462,10.533913" id="path-8"></path>
        <path d="M112.009826,3.31420875 L11.1761739,61.7155556 C1.1246087,67.5418182 -2.31808696,80.4289562 3.48886957,90.5278114 C7.374,97.2835017 14.4529565,101.070572 21.7254783,101.070572 C25.2787826,101.070572 28.9012174,100.155017 32.2056522,98.2406734 L133.025478,39.8393266 C143.077043,34.013064 146.533565,21.1259259 140.712783,11.0131987 C136.841478,4.27138047 129.748696,0.484309764 122.503826,0.484309764 C118.92287,0.484309764 115.300435,1.39986532 112.009826,3.31420875" id="path-10"></path>
        <path d="M264.917214,46.063088 C200.263133,90.3903186 137.346691,162.116555 87.7197144,247.965847 C-19.1381488,432.829285 -29.411072,619.997961 64.3241396,674.059962 C81.2278942,683.80862 100.202915,688.460758 120.581948,688.460758 C213.107763,688.460758 334.450586,592.293442 422.013703,440.772636 C471.64068,354.923344 502.320439,264.630219 508.436929,186.515974 C514.998255,102.930259 492.617461,41.8969949 445.395377,14.6785199 C428.491623,4.92986208 409.433195,0.0971940776 388.720535,0.0971940776 C351.646264,0.111081055 309.331273,15.6089474 264.917214,46.063088 M85.4538328,637.481665 C53.6202818,619.123081 38.2873531,571.018593 43.4168641,505.513722 C49.0746175,433.565295 77.794319,349.590745 124.321348,269.074052 C170.862277,188.557359 229.288659,121.733226 288.841031,80.8638524 C325.734588,55.5478933 360.362263,42.4802479 388.762239,42.4802479 C402.107308,42.4802479 414.076167,45.3826261 424.279585,51.2429304 C456.140938,69.629288 471.432164,117.719889 466.302653,183.22476 C460.672701,255.187075 431.939099,339.133851 385.41207,419.650544 C338.885042,500.167236 280.45866,567.005257 220.892386,607.860743 C183.99883,633.176702 149.371155,646.244348 120.957278,646.244348 C107.62611,646.244348 95.6572505,643.355856 85.4538328,637.481665" id="path-12"></path>
        <linearGradient x1="22.8110589%" y1="85.0460795%" x2="75.5693688%" y2="-7.40666702%" id="linearGradient-14">
            <stop stop-color="#20D5D2" stop-opacity="0.82" offset="0%"></stop>
            <stop stop-color="#20D5D2" stop-opacity="0" offset="71.5121245%"></stop>
            <stop stop-color="#20D5D2" stop-opacity="0" offset="78.5195238%"></stop>
            <stop stop-color="#009E9A" offset="100%"></stop>
        </linearGradient>
        <linearGradient x1="22.8110589%" y1="85.0460795%" x2="75.5693688%" y2="-7.40666702%" id="linearGradient-15">
            <stop stop-color="#20D5D2" stop-opacity="0.82" offset="0%"></stop>
            <stop stop-color="#20D5D2" stop-opacity="0" offset="40.6543533%"></stop>
            <stop stop-color="#20D5D2" stop-opacity="0" offset="55.382948%"></stop>
            <stop stop-color="#009E9A" offset="100%"></stop>
        </linearGradient>
        <path d="M35.640115,221.04685 C-52.4359138,411.494567 30.7832361,638.12152 221.145133,726.237256 C272.697433,750.116107 326.900201,761.416912 380.298115,761.416912 C524.033975,761.416912 661.872197,679.534667 726.094012,540.66249 C814.183918,350.228655 730.964768,123.587819 540.588994,35.4720835 C489.744411,11.9403091 435.500012,0.111948148 381.089092,0.111948148 C336.849864,0.111948148 292.471869,7.92810685 249.703581,23.6437226 C154.31448,58.6984308 78.3112649,128.82173 35.640115,221.04685 Z M73.9400739,238.789391 C111.865359,156.754432 179.459236,94.4334085 264.246464,63.2520721 C302.282764,49.285721 341.72062,42.3303116 381.075216,42.3303116 C429.435852,42.3303116 477.671598,52.8675486 522.882201,73.7893091 C692.123614,152.131376 766.114694,353.602237 687.80793,522.933832 C630.718789,646.39582 508.172797,719.198548 380.367499,719.198548 C332.894977,719.198548 284.686986,709.147218 238.851926,687.933914 C69.6105133,609.591847 -4.36668994,408.093219 73.9400739,238.789391 Z" id="path-16"></path>
        <path d="M219.70203,1.76684455 C130.84656,7.7564257 62.1349967,45.2642668 26.2788415,107.383589 C-9.57731374,169.516808 -7.70184649,247.784374 31.5440421,327.761264 C69.4284805,404.944869 138.084474,475.068828 224.897769,525.195091 C303.333977,570.499115 388.452405,594.790966 467.444307,594.790966 C475.835286,594.790966 484.212373,594.526924 492.450537,593.971047 C581.347684,587.981466 650.01757,550.473624 685.887617,488.340406 C721.743773,426.207187 719.868305,347.953518 680.622417,267.962731 C642.751871,190.779126 574.081985,120.655166 487.282583,70.5428007 C408.860267,25.2248793 323.672377,0.933028152 244.722152,0.933028152 C236.317281,0.933028152 227.967978,1.21096695 219.70203,1.76684455 M246.000248,488.604447 C166.383191,442.605576 103.700908,378.888106 69.4701575,309.153261 C36.6147499,242.197804 34.2669427,178.063426 62.8712913,128.520835 C91.4756399,78.9782433 148.17032,48.933059 222.536069,43.9301606 C300.04149,38.7049111 386.549153,61.1484693 466.180103,107.133444 C545.783268,153.118418 608.493336,216.849785 642.710194,286.58463 C675.565601,353.512294 677.885624,417.660569 649.30906,467.217057 C616.606468,523.888778 548.964616,552.80831 468.208386,552.80831 C399.177299,552.80831 320.532706,531.643271 246.000248,488.604447" id="path-18"></path>
        <linearGradient x1="22.8110589%" y1="85.0460795%" x2="75.5693688%" y2="-7.40666702%" id="linearGradient-20">
            <stop stop-color="#20D5D2" offset="0%"></stop>
            <stop stop-color="#20D5D2" stop-opacity="0.21" offset="79.2555264%"></stop>
            <stop stop-color="#20D5D2" stop-opacity="0" offset="86.8316474%"></stop>
            <stop stop-color="#009E9A" offset="100%"></stop>
        </linearGradient>
        <path d="M508.679204,0.14703805 C429.333254,0.14703805 333.870594,27.254484 240.340826,81.2606429 C154.069836,131.119975 83.2758945,196.536866 41.0303645,265.4883 C-3.66256949,338.419575 -11.6583495,407.343179 18.4753119,459.595981 C48.4977277,511.640051 110.781378,537.592508 188.486454,537.592508 C267.846309,537.592508 363.295064,510.498978 456.810926,456.464988 C543.109728,406.605656 613.889763,341.188765 656.163105,272.223415 C700.842133,199.319971 708.851819,130.382452 678.704252,78.1296494 C648.66793,26.1273263 586.425997,0.14703805 508.748732,0.14703805 L508.679204,0.14703805 Z M55.0890316,438.444381 C33.0623959,400.24626 40.8774017,346.685398 77.0739503,287.627903 C115.703997,224.562736 181.213771,164.29459 261.491402,117.91414 C347.247881,68.3609497 437.398563,43.0486067 509.708226,43.0486067 C571.546893,43.0486067 620.328104,61.5701727 642.090532,99.2951654 C664.117168,137.479371 656.302162,191.040233 620.105613,250.111643 C581.461661,313.162895 515.965793,373.43104 435.688161,419.825406 C349.917776,469.364681 259.753189,494.69094 187.471338,494.677024 C125.646576,494.677024 76.851459,476.155458 55.0890316,438.444381 Z" id="path-21"></path>
    </defs>
    <g id="Page-1" stroke="none" stroke-width="1" fill="none" fill-rule="evenodd">
        <g>
            <g id="Group-3" transform="translate(0.000000, 295.000000)">
                <mask id="mask-2" fill="white">
                    <use xlink:href="#path-1"></use>
                </mask>
                <g id="Clip-2"></g>
                <path d="M2.98874308,11.0131987 C1.22203953,14.1205387 0.311083004,17.4082155 0.18686166,20.7375084 L0.18686166,22.3466667 C0.462909091,29.3520539 4.18954941,36.0938721 10.676664,39.8393266 L111.33736,98.2406734 C114.636126,100.155017 118.252348,101.070572 121.799557,101.070572 C129.059605,101.070572 136.112617,97.2835017 140.004885,90.5278114 C145.788079,80.4289562 142.351289,67.5418182 132.316964,61.7155556 L31.6562688,3.31420875 C28.3436996,1.39986532 24.7688854,0.484309764 21.1940711,0.484309764 C13.9340237,0.484309764 6.89481423,4.27138047 2.98874308,11.0131987" id="Fill-1" fill="url(#linearGradient-3)" mask="url(#mask-2)"></path>
            </g>
            <g id="Group-6" transform="translate(216.000000, 79.000000)">
                <mask id="mask-5" fill="white">
                    <use xlink:href="#path-4"></use>
                </mask>
                <g id="Clip-5"></g>
                <path d="M10.8050095,2.84599209 C0.735784091,8.65679051 -2.71296023,21.4791937 3.10419886,31.5135178 L61.4142936,132.174213 C65.3201004,138.909771 72.3976439,142.664016 79.6829432,142.664016 C83.2424905,142.664016 86.8712898,141.766862 90.1815303,139.848332 C100.250756,134.065138 103.71335,121.201328 97.8961913,111.180806 L39.5722462,10.533913 C35.6941402,3.79835573 28.5888958,0.0303083004 21.3312973,0.0303083004 C17.7578996,0.0303083004 14.11525,0.941264822 10.8050095,2.84599209" id="Fill-4" fill="url(#linearGradient-3)" mask="url(#mask-5)"></path>
            </g>
            <g id="Group-9" transform="translate(511.000000, 0.000000)">
                <mask id="mask-7" fill="white">
                    <use xlink:href="#path-6"></use>
                </mask>
                <g id="Clip-8"></g>
                <path d="M0.473214286,21.2277124 L0.473214286,137.91085 C0.473214286,149.550065 9.83696429,158.986144 21.3732143,158.986144 C32.9369643,158.986144 42.2869643,149.550065 42.2869643,137.91085 L42.2869643,21.2277124 C42.2869643,9.60235294 32.9369643,0.152418301 21.3732143,0.152418301 C9.83696429,0.152418301 0.473214286,9.60235294 0.473214286,21.2277124" id="Fill-7" fill="url(#linearGradient-3)" mask="url(#mask-7)"></path>
            </g>
            <g id="Group-12" transform="translate(747.000000, 79.000000)">
                <mask id="mask-9" fill="white">
                    <use xlink:href="#path-8"></use>
                </mask>
                <g id="Clip-11"></g>
                <path d="M61.9371462,10.533913 L3.31872692,111.180806 C-2.54450769,121.201328 0.937223077,134.065138 11.0481692,139.848332 C14.3906308,141.766862 18.0255577,142.664016 21.6187038,142.664016 C28.9303385,142.664016 36.0609231,138.909771 39.9743885,132.174213 L98.6206615,31.5135178 C104.456042,21.4791937 100.988238,8.65679051 90.8633654,2.84599209 C87.5209038,0.955067194 83.8999038,0.0441106719 80.3067577,0.0441106719 C72.9811962,0.0441106719 65.8645385,3.79835573 61.9371462,10.533913" id="Fill-10" fill="url(#linearGradient-3)" mask="url(#mask-9)"></path>
            </g>
            <g id="Group-15" transform="translate(921.000000, 295.000000)">
                <mask id="mask-11" fill="white">
                    <use xlink:href="#path-10"></use>
                </mask>
                <g id="Clip-14"></g>
                <path d="M112.009826,3.31420875 L11.1761739,61.7155556 C1.1246087,67.5418182 -2.31808696,80.4289562 3.48886957,90.5278114 C7.374,97.2835017 14.4529565,101.070572 21.7254783,101.070572 C25.2787826,101.070572 28.9012174,100.155017 32.2056522,98.2406734 L133.025478,39.8393266 C143.077043,34.013064 146.533565,21.1259259 140.712783,11.0131987 C136.841478,4.27138047 129.748696,0.484309764 122.503826,0.484309764 C118.92287,0.484309764 115.300435,1.39986532 112.009826,3.31420875" id="Fill-13" fill="url(#linearGradient-3)" mask="url(#mask-11)"></path>
            </g>
            <g id="Group-18" transform="translate(277.000000, 268.000000)">
                <mask id="mask-13" fill="white">
                    <use xlink:href="#path-12"></use>
                </mask>
                <g id="Clip-17"></g>
                <path d="M264.917214,46.063088 C200.263133,90.3903186 137.346691,162.116555 87.7197144,247.965847 C-19.1381488,432.829285 -29.411072,619.997961 64.3241396,674.059962 C81.2278942,683.80862 100.202915,688.460758 120.581948,688.460758 C213.107763,688.460758 334.450586,592.293442 422.013703,440.772636 C471.64068,354.923344 502.320439,264.630219 508.436929,186.515974 C514.998255,102.930259 492.617461,41.8969949 445.395377,14.6785199 C428.491623,4.92986208 409.433195,0.0971940776 388.720535,0.0971940776 C351.646264,0.111081055 309.331273,15.6089474 264.917214,46.063088 M85.4538328,637.481665 C53.6202818,619.123081 38.2873531,571.018593 43.4168641,505.513722 C49.0746175,433.565295 77.794319,349.590745 124.321348,269.074052 C170.862277,188.557359 229.288659,121.733226 288.841031,80.8638524 C325.734588,55.5478933 360.362263,42.4802479 388.762239,42.4802479 C402.107308,42.4802479 414.076167,45.3826261 424.279585,51.2429304 C456.140938,69.629288 471.432164,117.719889 466.302653,183.22476 C460.672701,255.187075 431.939099,339.133851 385.41207,419.650544 C338.885042,500.167236 280.45866,567.005257 220.892386,607.860743 C183.99883,633.176702 149.371155,646.244348 120.957278,646.244348 C107.62611,646.244348 95.6572505,643.355856 85.4538328,637.481665" id="Fill-16" fill="url(#linearGradient-14)" mask="url(#mask-13)"></path>
            </g>
            <g id="Group-21" transform="translate(150.000000, 231.000000)">
                <path d="M249.703581,23.6437226 C154.31448,58.6984308 78.3112649,128.82173 35.640115,221.04685 C-52.4359138,411.494567 30.7832361,638.12152 221.145133,726.237256 C272.697433,750.116107 326.900201,761.416912 380.298115,761.416912 C524.033975,761.416912 661.872197,679.534667 726.094012,540.66249 C814.183918,350.228655 730.964768,123.587819 540.588994,35.4720835 C489.744411,11.9403091 435.500012,0.111948148 381.089092,0.111948148 C336.849864,0.111948148 292.471869,7.92810685 249.703581,23.6437226 M238.851926,687.933914 C69.6105133,609.591847 -4.36668994,408.093219 73.9400739,238.789391 C111.865359,156.754432 179.459236,94.4334085 264.246464,63.2520721 C302.282764,49.285721 341.72062,42.3303116 381.075216,42.3303116 C429.435852,42.3303116 477.671598,52.8675486 522.882201,73.7893091 C692.123614,152.131376 766.114694,353.602237 687.80793,522.933832 C630.718789,646.39582 508.172797,719.198548 380.367499,719.198548 C332.894977,719.198548 284.686986,709.147218 238.851926,687.933914" id="Fill-19" fill="url(#linearGradient-15)"></path>
                <mask id="mask-17" fill="white">
                    <use xlink:href="#path-16"></use>
                </mask>
                <g id="Clip-20"></g>
            </g>
            <g id="Group-24" transform="translate(176.000000, 314.000000)">
                <mask id="mask-19" fill="white">
                    <use xlink:href="#path-18"></use>
                </mask>
                <g id="Clip-23"></g>
                <path d="M219.70203,1.76684455 C130.84656,7.7564257 62.1349967,45.2642668 26.2788415,107.383589 C-9.57731374,169.516808 -7.70184649,247.784374 31.5440421,327.761264 C69.4284805,404.944869 138.084474,475.068828 224.897769,525.195091 C303.333977,570.499115 388.452405,594.790966 467.444307,594.790966 C475.835286,594.790966 484.212373,594.526924 492.450537,593.971047 C581.347684,587.981466 650.01757,550.473624 685.887617,488.340406 C721.743773,426.207187 719.868305,347.953518 680.622417,267.962731 C642.751871,190.779126 574.081985,120.655166 487.282583,70.5428007 C408.860267,25.2248793 323.672377,0.933028152 244.722152,0.933028152 C236.317281,0.933028152 227.967978,1.21096695 219.70203,1.76684455 M246.000248,488.604447 C166.383191,442.605576 103.700908,378.888106 69.4701575,309.153261 C36.6147499,242.197804 34.2669427,178.063426 62.8712913,128.520835 C91.4756399,78.9782433 148.17032,48.933059 222.536069,43.9301606 C300.04149,38.7049111 386.549153,61.1484693 466.180103,107.133444 C545.783268,153.118418 608.493336,216.849785 642.710194,286.58463 C675.565601,353.512294 677.885624,417.660569 649.30906,467.217057 C616.606468,523.888778 548.964616,552.80831 468.208386,552.80831 C399.177299,552.80831 320.532706,531.643271 246.000248,488.604447" id="Fill-22" fill="url(#linearGradient-20)" mask="url(#mask-19)"></path>
            </g>
            <g id="Group-27" transform="translate(184.000000, 344.000000)">
                <mask id="mask-22" fill="white">
                    <use xlink:href="#path-21"></use>
                </mask>
                <g id="Clip-26"></g>
                <path d="M508.679204,0.14703805 C429.333254,0.14703805 333.870594,27.254484 240.340826,81.2606429 C154.069836,131.119975 83.2758945,196.536866 41.0303645,265.4883 C-3.66256949,338.419575 -11.6583495,407.343179 18.4753119,459.595981 C48.4977277,511.640051 110.781378,537.592508 188.486454,537.592508 C267.846309,537.592508 363.295064,510.498978 456.810926,456.464988 C543.109728,406.605656 613.889763,341.188765 656.163105,272.223415 C700.842133,199.319971 708.851819,130.382452 678.704252,78.1296494 C648.66793,26.1273263 586.425997,0.14703805 508.748732,0.14703805 L508.679204,0.14703805 Z M55.0890316,438.444381 C33.0623959,400.24626 40.8774017,346.685398 77.0739503,287.627903 C115.703997,224.562736 181.213771,164.29459 261.491402,117.91414 C347.247881,68.3609497 437.398563,43.0486067 509.708226,43.0486067 C571.546893,43.0486067 620.328104,61.5701727 642.090532,99.2951654 C664.117168,137.479371 656.302162,191.040233 620.105613,250.111643 C581.461661,313.162895 515.965793,373.43104 435.688161,419.825406 C349.917776,469.364681 259.753189,494.69094 187.471338,494.677024 C125.646576,494.677024 76.851459,476.155458 55.0890316,438.444381 Z" id="Fill-25" fill="url(#linearGradient-3)" mask="url(#mask-22)"></path>
            </g>
        </g>
    </g>
</svg>